HIERARCHY
ROOT Pelvis
{
	OFFSET 0.000000 0.000000 0.000000
	CHANNELS 6 Xposition Yposition Zposition Zrotation Yrotation Xrotation 
	JOINT Left_hip
	{
		OFFSET 0.070241 -0.085575 -0.010474
		CHANNELS 3 Zrotation Yrotation Xrotation
		JOINT Left_knee
		{
			OFFSET 0.032125 -0.356873 -0.000555
			CHANNELS 3 Zrotation Yrotation Xrotation
			JOINT Left_ankle
			{
				OFFSET -0.010961 -0.370212 -0.042278
				CHANNELS 3 Zrotation Yrotation Xrotation
				JOINT Left_foot
				{
					OFFSET 0.023322 -0.052281 0.110104
					CHANNELS 3 Zrotation Yrotation Xrotation
					End Site
					{
						OFFSET 0.000000 0.000000 0.000000
					}
				}
			}
		}
	}
	JOINT Right_hip
	{
		OFFSET -0.068518 -0.084320 -0.007402
		CHANNELS 3 Zrotation Yrotation Xrotation
		JOINT Right_knee
		{
			OFFSET -0.037345 -0.364815 -0.003619
			CHANNELS 3 Zrotation Yrotation Xrotation
			JOINT Right_ankle
			{
				OFFSET 0.013394 -0.370006 -0.039954
				CHANNELS 3 Zrotation Yrotation Xrotation
				JOINT Right_foot
				{
					OFFSET -0.019600 -0.045455 0.113223
					CHANNELS 3 Zrotation Yrotation Xrotation
					End Site
					{
						OFFSET 0.000000 0.000000 0.000000
					}
				}
			}
		}
	}
	JOINT Spine1
	{
		OFFSET -0.002404 0.098129 -0.018169
		CHANNELS 3 Zrotation Yrotation Xrotation
		JOINT Spine2
		{
			OFFSET 0.003989 0.127209 -0.001742
			CHANNELS 3 Zrotation Yrotation Xrotation
			JOINT Spine3
			{
				OFFSET 0.001758 0.046641 0.023475
				CHANNELS 3 Zrotation Yrotation Xrotation
				JOINT Neck
				{
					OFFSET -0.003759 0.194901 -0.039982
					CHANNELS 3 Zrotation Yrotation Xrotation
					JOINT Head
					{
						OFFSET 0.003999 0.063756 0.047665
						CHANNELS 3 Zrotation Yrotation Xrotation
						End Site
						{
							OFFSET 0.000000 0.000000 0.000000
						}
					}
				}
				JOINT Left_collar
				{
					OFFSET 0.071816 0.109048 -0.028973
					CHANNELS 3 Zrotation Yrotation Xrotation
					JOINT Left_shoulder
					{
						OFFSET 0.084027 0.032269 -0.006525
						CHANNELS 3 Zrotation Yrotation Xrotation
						JOINT Left_elbow
						{
							OFFSET 0.243854 -0.013992 -0.025905
							CHANNELS 3 Zrotation Yrotation Xrotation
							JOINT Left_wrist
							{
								OFFSET 0.232156 0.008196 -0.000339
								CHANNELS 3 Zrotation Yrotation Xrotation
								JOINT Left_palm
								{
									OFFSET 0.075377 -0.009461 -0.012494
									CHANNELS 3 Zrotation Yrotation Xrotation
									End Site
									{
										OFFSET 0.000000 0.000000 0.000000
									}
								}
							}
						}
					}
				}
				JOINT Right_collar
				{
					OFFSET -0.073768 0.107001 -0.033755
					CHANNELS 3 Zrotation Yrotation Xrotation
					JOINT Right_shoulder
					{
						OFFSET -0.086837 0.032868 -0.009431
						CHANNELS 3 Zrotation Yrotation Xrotation
						JOINT Right_elbow
						{
							OFFSET -0.236446 -0.012544 -0.018747
							CHANNELS 3 Zrotation Yrotation Xrotation
							JOINT Right_wrist
							{
								OFFSET -0.236110 0.006124 -0.004327
								CHANNELS 3 Zrotation Yrotation Xrotation
								JOINT Right_palm
								{
									OFFSET -0.074800 -0.006875 -0.009610
									CHANNELS 3 Zrotation Yrotation Xrotation
									End Site
									{
										OFFSET 0.000000 0.000000 0.000000
									}
								}
							}
						}
					}
				}
			}
		}
	}
}
MOTION
Frames: 9
Frame Time: 0.100000
0.000000 0.000000 0.000000 176.326333 25.899847 -8.169710 -1.225814 4.103438 -1.603430 0.745809 -8.764489 -4.948379 -3.951777 24.921663 -0.841702 9.727925 -5.680652 -1.097182 2.790412 -4.529626 -2.240708 -0.334493 6.988809 -2.855272 -0.137547 -23.919436 -2.433030 2.959012 9.121529 8.176036 -0.465359 2.552007 -0.011040 0.962675 -2.949297 -4.147706 -0.317550 2.284804 0.333947 -5.432877 -7.521993 13.224856 4.642596 -1.832391 13.191010 -5.046089 5.982780 -8.966272 6.348470 -16.377051 -17.362138 1.064099 13.133224 -9.217208 2.514531 -5.161155 31.663423 -0.965995 -7.031138 -0.975636 8.400675 -1.943735 -7.638725 -5.555427 10.091039 -23.558396 -7.786191 -15.851100 -19.452359 -6.360008 3.956599 27.738154 7.224337 7.491931 -2.279995 
-0.004450 -0.000285 0.001138 176.136130 26.105725 -8.408202 -1.281659 4.180578 -0.851111 0.879010 -8.863519 -5.744820 -3.894484 24.747874 -0.795127 9.545801 -5.460102 -0.791649 2.780115 -4.635562 -1.566310 -0.556014 6.813641 -3.486498 -0.471023 -23.916139 -2.108026 3.539082 8.733211 8.542565 -0.619239 2.372045 -0.579345 1.116882 -3.163360 -3.903143 -0.384656 2.068303 0.424825 -5.285387 -7.872483 14.368174 4.538270 -1.945406 13.561268 -5.238731 6.513829 -8.957616 6.012224 -16.455008 -17.144341 0.995521 13.093274 -9.398010 2.298350 -4.993859 31.524810 -1.077849 -6.960567 -0.905754 8.506026 -2.786833 -8.000398 -5.399938 9.952886 -23.366070 -7.911270 -16.047452 -19.687433 -6.116312 3.676127 27.741008 7.361330 7.478989 -2.271771 
-0.008851 -0.000618 0.003640 175.994616 26.311507 -8.831532 -1.320244 4.189288 -0.182042 0.852850 -8.978451 -5.764193 -3.833418 24.672265 -1.200310 9.480871 -5.290264 -0.437121 2.740823 -4.718526 -0.693449 -0.749617 6.673585 -3.876326 -0.878183 -23.923028 -1.981804 4.220441 8.291011 8.806586 -0.789039 2.263078 -1.197086 1.208870 -3.355939 -3.548227 -0.494766 1.880347 0.344071 -5.246922 -8.008694 15.421937 4.298101 -1.851388 13.834113 -5.459569 6.840754 -8.988071 5.938602 -16.850859 -17.152774 1.003128 13.184710 -9.533523 1.906523 -4.604390 31.755681 -1.145171 -6.916190 -0.879221 8.595484 -3.434477 -8.325492 -5.449785 10.044594 -23.268053 -7.985129 -16.404248 -19.696029 -5.707757 3.167632 28.096675 7.529982 7.551298 -2.251321 
-0.012159 -0.000859 0.006182 175.930013 25.994881 -9.139536 -1.266981 4.354800 0.526790 0.820227 -8.829823 -5.973575 -3.760554 24.584841 -1.628621 9.417945 -5.088293 0.079986 2.684543 -4.728534 -0.429438 -0.626068 6.415418 -3.394805 -1.347269 -23.485587 -2.080358 5.307810 7.704783 9.041906 -0.916284 2.191505 -1.885870 1.305128 -3.297959 -2.961359 -0.597950 1.824036 -0.072561 -5.002065 -7.654976 16.154332 3.882168 -1.810823 13.677767 -5.752164 7.052897 -9.061852 6.049398 -16.985733 -16.832205 1.169025 13.121994 -9.468861 1.782981 -4.720491 31.984566 -1.071771 -6.822425 -1.069477 8.890584 -3.627980 -8.397595 -5.720927 10.163271 -22.977688 -8.061915 -16.353898 -19.729571 -5.585069 3.233297 27.958257 7.582308 7.439628 -2.185430 
-0.013927 -0.000940 0.007908 175.826280 25.790931 -9.392744 -1.197658 4.395730 0.913376 0.852984 -8.752552 -5.897742 -3.706505 24.574731 -2.010075 9.398450 -4.957877 0.323602 2.782270 -4.664339 -0.043434 -0.691247 6.372157 -3.411558 -1.637971 -23.331388 -2.085551 5.870452 7.398348 9.182627 -1.037794 2.192613 -2.255700 1.375579 -3.250808 -2.727550 -0.634178 1.796807 -0.316935 -4.792689 -7.444308 16.388394 3.658784 -1.842930 13.446038 -5.906168 7.318021 -9.184001 6.073195 -17.119192 -16.725423 1.211607 13.008448 -9.627577 1.497312 -4.604743 32.108263 -1.071149 -6.768339 -1.117806 9.112151 -3.806104 -8.509381 -5.801956 10.351411 -22.880072 -8.052041 -16.633816 -19.864386 -5.300995 3.019841 27.996588 7.619186 7.412579 -2.102208 
-0.014261 -0.000861 0.008471 175.794690 25.802958 -9.475097 -1.170782 4.405020 1.079539 0.886534 -8.783909 -5.963321 -3.815133 24.546182 -2.174583 9.563306 -4.920638 0.462173 2.831438 -4.586150 0.142373 -0.748773 6.284664 -3.522795 -1.706087 -23.288232 -2.072129 5.892809 7.254327 9.119327 -1.132676 2.170890 -2.354607 1.371318 -3.247684 -2.595334 -0.647219 1.759183 -0.476547 -4.888200 -7.449405 16.322099 3.616629 -2.142737 12.624784 -6.042825 7.445676 -9.269142 6.151837 -17.089972 -16.717703 1.296470 13.138263 -9.746804 1.285247 -4.833428 32.405756 -1.021583 -6.685331 -1.205001 9.291976 -3.826592 -8.662623 -5.660468 10.346193 -22.869427 -8.211978 -16.744334 -20.212310 -5.289599 3.289381 27.845234 7.601090 7.311245 -1.958492 
-0.013689 -0.000763 0.008235 175.787540 25.897959 -9.414765 -1.191914 4.404832 1.064679 0.958617 -8.805453 -6.149136 -3.869218 24.477567 -2.113878 9.568753 -4.914042 0.578051 2.856014 -4.617969 0.122260 -0.776467 6.191784 -3.673127 -1.802415 -23.228761 -1.952660 6.021234 7.143901 9.041935 -1.142026 2.150815 -2.316529 1.325650 -3.210061 -2.626496 -0.652649 1.739065 -0.526639 -4.960818 -7.500535 16.049013 3.544313 -2.304794 11.997177 -6.093264 7.450822 -9.288710 6.056985 -16.945340 -16.510021 1.390507 13.348264 -9.617425 1.971324 -5.236294 32.487394 -0.827286 -6.579443 -1.053976 9.287524 -3.833351 -8.684067 -5.535350 10.219134 -22.717668 -8.115772 -16.695906 -20.135344 -5.790567 3.654759 27.637442 7.492605 7.210253 -1.808433 
-0.012624 -0.000697 0.007541 175.786668 25.986021 -9.471726 -1.179300 4.402315 1.049585 0.963211 -8.827634 -6.135124 -3.921540 24.463946 -2.081068 9.643612 -4.932809 0.536367 2.860735 -4.626033 0.177552 -0.773719 6.187670 -3.744665 -1.784351 -23.231519 -1.934691 5.932497 7.163379 8.985832 -1.142452 2.185046 -2.242824 1.291256 -3.181004 -2.592083 -0.657579 1.766422 -0.500272 -4.924041 -7.508636 15.977503 3.612993 -2.310475 11.805587 -6.097995 7.501406 -9.288344 5.982928 -16.913012 -16.474197 1.421038 13.202491 -9.650695 1.939873 -5.277191 32.408061 -0.869758 -6.571534 -1.085613 9.210081 -3.834789 -8.666905 -5.493164 10.199179 -22.709283 -8.044281 -16.598128 -20.240366 -5.671310 3.660828 27.384794 7.478766 7.199588 -1.782855 
-0.011286 -0.000600 0.006901 175.802162 26.021658 -9.537984 -1.135823 4.404133 1.014330 0.952120 -8.797422 -6.105771 -3.943241 24.416835 -1.978424 9.668812 -4.904820 0.492937 2.867379 -4.669362 0.203125 -0.725261 6.119060 -3.818344 -1.765690 -23.169903 -1.822506 5.869940 7.134921 8.906961 -1.162110 2.219944 -2.180961 1.254021 -3.145685 -2.553205 -0.658317 1.792261 -0.476323 -4.815723 -7.386669 15.996528 3.671835 -2.285037 11.666295 -6.038910 7.541093 -9.315980 5.862317 -16.913775 -16.411735 1.467606 13.147500 -9.698939 1.827033 -5.245623 32.309641 -0.894240 -6.544806 -1.150397 9.096981 -3.801755 -8.619274 -5.372982 10.272503 -22.632079 -8.029079 -16.503389 -20.206149 -5.499491 3.615348 27.145670 7.450829 7.175860 -1.785839 
